<svg xmlns="http://www.w3.org/2000/svg" width="1200" height="1200" shape-rendering="crispEdges" version="1.2" viewBox="0 0 48 48" background="blue"><rect height="1200" width="1200" fill="#021f64"></rect><path d="M23 13h1v1h-1m1-1h1v1h-1m-2 0h1v1h-1m-1 0h1v1h-1m4-2h1v1h-1m1 0h1v1h-1m1 0h1v1h-1m0 0h1v1h-1m0 0h1v1h-1m0 0h1v1h-1m0 0h1v1h-1m0 0h1v1h-1m0 0h1v1h-1m0 0h1v1h-1m0 0h1v1h-1m0 0h1v1h-1m-7-10h1v1h-1m0 0h1v1h-1m0 0h1v1h-1m0 0h1v1h-1m0 0h1v1h-1m0 0h1v1h-1m0 0h1v1h-1m0 0h1v1h-1m0 0h1v1h-1m0 0h1v1h-1m6-1h1v1h-1m-5-1h1v1h-1m0 0h1v1h-1m0 0h1v1h-1m5-2h1v1h-1m0 0h1v1h-1m-1-1h1v1h-1m-3-1h1v1h-1m1 0h1v1h-1m1-1h1v1h-1m-2-1h1v1h-1m3-1h1v1h-1m5-8h1v1h-1m-1-2h1v1h-1m-11-1h1v1h-1m-1 0h1v1h-1m-1 0h1v1h-1m-1 0h1v1h-1m0 0h1v1h-1m0 0h1v1h-1m0 0h1v1h-1m0 0h1v1h-1m0 0h1v1h-1m1-2h1v1h-1m1-2h1v1h-1m11-2h1v1h-1m0-7h1v1h-1m-10 5h1v1h-1m1-1h1v1h-1m0-7h1v1h-1m12 2h1v1h-1m1 0h1v1h-1m0 0h1v1h-1m0 0h1v1h-1m0 0h1v1h-1m0 0h1v1h-1m0 0h1v1h-1m-1-2h1v1h-1m-1-2h1v1h-1m-1-2h1v1h-1m-6-7h1v1h-1m1-1h1v1h-1m1 0h1v1h-1m0 0h1v1h-1m-1 0h1v1h-1m-1-1h1v1h-1m-1-2h1v1h-1m0-2h1v1h-1" fill="black" /><path d="M24 29h1v1h-1m0 0h1v1h-1m-1-1h1v1h-1m0-2h1v1h-1" fill="#f9f49f"/><path d="M22 29h1v1h-1m0 0h1v1h-1m0 0h1v1h-1m3-3h1v1h-1m0 0h1v1h-1m0 0h1v1h-1" fill="#ffbf0a"/><path d="M23 32h1v1h-1m1-1h1v1h-1m0 0h1v1h-1m-1-1h1v1h-1" fill="#fed404"/><path d="M23 31h1v1h-1m1-1h1v1h-1" fill="#fde910"/><path d="M23 34h1v1h-1m1-1h1v1h-1" fill="#ff5900"/><path d="M22 32h1v1h-1m3-1h1v1h-1" fill="#ff9104"/><path d="M21 18h1v1h-1m0 0h1v1h-1m0 0h1v1h-1m0 0h1v1h-1m0 0h1v1h-1m0 0h1v1h-1m0 0h1v1h-1m1 1h1v1h-1m1-1h1v1h-1m1 0h1v1h-1m-1-1h1v1h-1m1-2h1v1h-1m1-1h1v1h-1m0-2h1v1h-1m1-2h1v1h-1m0-2h1v1h-1m0-2h1v1h-1m0-2h1v1h-1m0-2h1v1h-1m0-2h1v1h-1m0-2h1v1h-1m-4-1h1v1h-1m1-1h1v1h-1m2-1h1v1h-1m0 0h1v1h-1m0 2h1v1h-1m0 0h1v1h-1m0 0h1v1h-1m-1 0h1v1h-1m0-2h1v1h-1m0-2h1v1h-1m0-6h1v1h-1m-2 0h1v1h-1m0 2h1v1h-1m0 0h1v1h-1m0 1h1v1h-1m1-1h1v1h-1m0-2h1v1h-1m0-2h1v1h-1m-1 0h1v1h-1" fill="#3545E4"/><path d="M21 16h1v1h-1m1-1h1v1h-1m1-1h1v1h-1m1-1h1v1h-1m1-1h1v1h-1m1-1h1v1h-1m0 0h1v1h-1m-1-1h1v1h-1m-1-1h1v1h-1m-1-1h1v1h-1m-1-1h1v1h-1m-1-1h1v1h-1m1-3h1v1h-1m1-1h1v1h-1m1-1h1v1h-1m1-1h1v1h-1m-1-2h1v1h-1m-1-1h1v1h-1" fill="#EAAA4B"/><path d="M19 20h1v1h-1m0 0h1v1h-1m-1-1h1v1h-1m1 0h1v1h-1m0 0h1v1h-1m0 0h1v1h-1m-1-1h1v1h-1m0-2h1v1h-1m0-2h1v1h-1m-1-1h1v1h-1m0 0h1v1h-1m0 1h1v1h-1m0-2h1v1h-1m-1-2h1v1h-1m0 0h1v1h-1m0 0h1v1h-1m0 0h1v1h-1m12-3h1v1h-1m0-2h1v1h-1m0-2h1v1h-1m0-2h1v1h-1m0-2h1v1h-1m1 0h1v1h-1m0 0h1v1h-1m0 0h1v1h-1m0 0h1v1h-1m1-3h1v1h-1m0 0h1v1h-1m1-1h1v1h-1m0 0h1v1h-1m-1-1h1v1h-1m0 0h1v1h-1m1-1h1v1h-1m0 0h1v1h-1" fill="#232360"/><path d="M23 21h1v1h-1m1-1h1v1h-1m0-2h1v1h-1m-1-1h1v1h-1" fill="#81EC09" /></svg>